<?xml version="1.0" encoding="iso-8859-1"?>
<!-- Generator: Adobe Illustrator 18.1.1, SVG Export Plug-In . SVG Version: 6.00 Build 0)  -->
<svg version="1.1" id="Capa_1" xmlns="http://www.w3.org/2000/svg" xmlns:xlink="http://www.w3.org/1999/xlink" x="0px" y="0px"
	 viewBox="0 0 174.239 174.239" style="enable-background:new 0 0 174.239 174.239;" xml:space="preserve">
<path d="M163.989,137.901c-25.402-15.679-24.033-66.635-24.011-67.399c0-23.788-15.807-43.943-37.466-50.551v-4.56
	C102.511,6.906,95.606,0,87.12,0S71.728,6.906,71.728,15.392v4.56C50.069,26.564,34.263,46.759,34.267,70.76
	c0.491,14.249-2.868,54.088-24.016,67.141c-2.839,1.753-4.171,5.18-3.26,8.394c0.912,3.211,3.843,5.428,7.183,5.428h44.707
	c2.954,12.875,14.481,22.516,28.239,22.516s25.285-9.641,28.239-22.516h44.707c3.34,0,6.271-2.217,7.183-5.428
	C168.16,143.081,166.828,139.654,163.989,137.901z M80.423,136.788H32.522c17.835-25.171,16.741-64.487,16.675-66.285
	c0-20.907,17.013-37.918,37.928-37.918c20.907,0,37.918,17.011,37.923,37.66c-0.07,2.013-1.164,41.367,16.67,66.543H80.423z"/>
<g>
</g>
<g>
</g>
<g>
</g>
<g>
</g>
<g>
</g>
<g>
</g>
<g>
</g>
<g>
</g>
<g>
</g>
<g>
</g>
<g>
</g>
<g>
</g>
<g>
</g>
<g>
</g>
<g>
</g>
</svg>
